# xmcd
# 
# Track frame offsets:
#     150
#     21986
#     34974
#     47616
#     67642
#     83961
#     107863
#     125035
#     141473
#     158840
# 
# Disc length: 2378
# 
# Revision: 1
# Processed by: cddbd v1.5.2PL0 Copyright (c) Steve Scherf et al.
# Submitted via: fre:ac v1.0.17
# 
DISCID=8909480a
DTITLE=Ronnie Peterson - Rock N' Roll Warrior
DYEAR=2011
DGENRE=Blues
TTITLE0=Sweet Daughter of Satan
TTITLE1=3 Minute Monkey Boy
TTITLE2=Just A Girl I Used To Know
TTITLE3=Forever Mine
TTITLE4=Hey Hey (I Feel Alright)
TTITLE5=Hideaway Love
TTITLE6=Warrior
TTITLE7=I Gotta Rock
TTITLE8=Wake Up Call
TTITLE9=Helter Skelter
EXTD=YEAR: 2011
EXTT0=
EXTT1=
EXTT2=
EXTT3=
EXTT4=
EXTT5=
EXTT6=
EXTT7=
EXTT8=
EXTT9=
PLAYORDER=
